{"title":"Ride Along 2014 720p HC Webrip x264 AC3 - 3x","uid":9554372,"size":1931312854,"categoryP":"video","categoryS":"hd___movies","magnet":"?xt=urn:btih:fbea927206fea3a2a25869647ea0eed3a2a6ecd2&amp;dn=Ride+Along+2014+720p+HC+Webrip+x264+AC3+-+3x&amp;tr=udp%3A%2F%2Ftracker.openbittorrent.com%3A80&amp;tr=udp%3A%2F%2Fopen.demonii.com%3A1337&amp;tr=udp%3A%2F%2Ftracker.coppersurfer.tk%3A6969&amp;tr=udp%3A%2F%2Fexodus.desync.com%3A6969","seeders":2,"leechers":0,"uploader":"NewSky005","files":5,"time":1391329516,"description":" &lt;a href=&quot;http://www.imdb.com/title/tt1408253/&quot; rel=&quot;nofollow&quot; target=&quot;_NEW&quot;&gt;http://www.imdb.com/title/tt1408253/&lt;/a&gt;\n\nGeneral\n\nFormat : Matroska\nFormat version : Version 2\nFile size : 1.80 GiB\nDuration : 1h 39mn\nOverall bit rate : 2 591 Kbps\nEncoded date : UTC 2014-02-01 15:35:49\nWriting application : mkvmerge v6.5.0 ('Isn't she lovely') built on Oct 20 2013 12:50:05\nWriting library : libebml v1.3.0 + libmatroska v1.4.1\n\nVideo\nID : 1\nFormat : AVC\nFormat/Info : Advanced Video Codec\nFormat profile : &lt;a class=&quot;__cf_email__&quot; href=&quot;/cdn-cgi/l/email-protection&quot; data-cfemail=&quot;e0a8898788a0acd3ced1&quot;&gt;[email&amp;#160;protected]&lt;/a&gt;&lt;script cf-hash='f9e31' type=&quot;text/javascript&quot;&gt;\n/* &lt;![CDATA[ */!function(){try{var t=&quot;currentScript&quot;in document?document.currentScript:function(){for(var t=document.getElementsByTagName(&quot;script&quot;),e=t.length;e--;)if(t[e].getAttribute(&quot;cf-hash&quot;))return t[e]}();if(t&amp;&amp;t.previousSibling){var e,r,n,i,c=t.previousSibling,a=c.getAttribute(&quot;data-cfemail&quot;);if(a){for(e=&quot;&quot;,r=parseInt(a.substr(0,2),16),n=2;a.length-n;n+=2)i=parseInt(a.substr(n,2),16)^r,e+=String.fromCharCode(i);e=document.createTextNode(e),c.parentNode.replaceChild(e,c)}}}catch(u){}}();/* ]]&gt; */&lt;/script&gt;\nFormat settings, CABAC : Yes\nFormat settings, ReFrames : 4 frames\nCodec ID : V_MPEG4/ISO/AVC\nDuration : 1h 39mn\nBit rate : 2 397 Kbps\nWidth : 1 280 pixels\nHeight : 528 pixels\nDisplay aspect ratio : 2.40:1\nFrame rate mode : Constant\nFrame rate : 24.000 fps\nColor space : YUV\nChroma subsampling : 4:2:0\nBit depth : 8 bits\nScan type : Progressive\nBits/(Pixel*Frame) : 0.148\nStream size : 1.63 GiB (91%)\nWriting library : x264 core 138 r2358 9e941d1\nDefault : Yes\nForced : No\n\nAudio\nID : 2\nFormat : AC-3\nFormat/Info : Audio Coding 3\nMode extension : CM (complete main)\nFormat settings, Endianness : Big\nCodec ID : A_AC3\nDuration : 1h 39mn\nBit rate mode : Constant\nBit rate : 192 Kbps\nChannel(s) : 2 channels\nChannel positions : Front: L R\nSampling rate : 48.0 KHz\nBit depth : 16 bits\nCompression mode : Lossy\nStream size : 136 MiB (7%)\nDefault : Yes\nForced : No","torrent":{"xt":"urn:btih:fbea927206fea3a2a25869647ea0eed3a2a6ecd2","amp;dn":"Ride+Along+2014+720p+HC+Webrip+x264+AC3+-+3x","amp;tr":["udp%3A%2F%2Ftracker.openbittorrent.com%3A80","udp%3A%2F%2Fopen.demonii.com%3A1337","udp%3A%2F%2Ftracker.coppersurfer.tk%3A6969","udp%3A%2F%2Fexodus.desync.com%3A6969"],"infoHash":"fbea927206fea3a2a25869647ea0eed3a2a6ecd2","infoHashBuffer":{"type":"Buffer","data":[251,234,146,114,6,254,163,162,162,88,105,100,126,160,238,211,162,166,236,210]},"announce":[],"urlList":[]}}